<?xml version="1.0" encoding="UTF-8"?>
<svg width="180" height="180" viewBox="0 0 180 180" fill="none" xmlns="http://www.w3.org/2000/svg">
  <rect width="180" height="180" rx="36" fill="#2563EB"/>
  <path d="M90 50C94.4183 50 98.5 47.5 102 43.5C105.5 39.5 109.5 34 109.5 27.5C109.5 26.5 109.5 25.5 109 24.5C105.5 25.5 103 27.5 100.5 30C98 32.5 96 36 96 40C96 40.6667 96 41.5 96 42.5C97 42.5 98 42.5 99 42.5C99.5 41.5 100 40.5 100.5 40C103.5 36.5 106 34 109 32.5C109 33.5 109 34.5 109 35.5C109 42 105.5 47 102 50.5C98.5 54 94.5 56 90 56V50Z" fill="white"/>
  <path d="M84 130C94 130 102 125 108 116C99 112 94 103 94 93C94 83 99 74 108 70C102 61 94 56 84 56C74 56 66 61 60 70C69 74 74 83 74 93C74 103 69 112 60 116C62 120 66 123 70 125C74 127 79 128 84 128V130Z" fill="white"/>
</svg>
