<svg width="175" height="150" viewBox="0 0 175 150" fill="none" xmlns="http://www.w3.org/2000/svg">
<path fill-rule="evenodd" clip-rule="evenodd" d="M156 89.4771H22.5952V86.4259H130.716L131.19 85.0701H22.5952V66.9717H156V89.4771ZM59.1997 77.6143L62.7926 72.1912H69.6387L65.9104 82.224H61.5042L64.1484 75.1055L59.3359 82.224H55.4041L55.9465 74.9708L53.3023 82.224H48.8961L52.5564 72.1912H58.1829C59.4713 72.1912 59.5387 73.547 59.4713 74.0894C59.4713 74.7666 59.1997 77.6143 59.1997 77.6143ZM83.0609 82.4267C84.891 82.4267 86.5176 82.0886 86.7892 82.0205L87.9407 79.0373C87.6202 79.079 87.3025 79.1293 86.99 79.1788C85.7829 79.3699 84.6533 79.5488 83.738 79.172C81.637 78.2914 82.9247 76.1223 84.4158 75.4452C85.0264 75.1736 85.9759 74.8347 86.9919 74.9027C87.4671 74.9027 88.5512 74.9027 88.959 75.8522L90.4494 72.3267C87.9414 71.7161 85.3661 72.055 84.0777 72.3267C81.0953 72.8691 77.0962 75.0389 77.1635 79.0381C77.1635 81.2753 79.9431 82.5629 83.0609 82.4267ZM127.124 82.224H131.935L135.665 72.1912H130.782L127.124 82.224ZM68.7581 82.224H73.5706L77.2989 72.1912H72.4183L68.7581 82.224ZM98.5174 75.7841L99.8051 72.1912H104.481L100.754 82.224H96.1441L97.3644 78.8338H94.923L93.6353 82.224H89.0256L92.7539 72.1912H97.3644L96.0087 75.7841H98.5174ZM124.546 72.1912L122.107 78.9019H126.851L125.632 82.224H116.141L119.802 72.1912H124.546ZM145.087 79.1047L147.662 72.1912H151.729L148.002 82.224H141.155L141.426 75.1055L138.851 82.224H134.716L138.444 72.1912H144.07C144.07 72.1912 144.545 72.1912 144.951 72.5975C145.291 72.9364 145.426 73.4116 145.358 74.0894C145.291 75.6479 145.155 78.4276 145.087 79.1047ZM109.497 78.4276L109.091 79.5125H114.718L113.769 82.224H103.465L107.193 72.1912H117.293L116.344 74.8347H110.787L110.379 75.9188H115.667L114.786 78.4276H109.497Z" fill="#221C35"/>
<path fill-rule="evenodd" clip-rule="evenodd" d="M49.3031 76.8009C49.5747 76.3266 49.2358 75.4452 48.6252 74.7665C48.0827 74.0894 47.3368 73.8851 47.2694 73.5462C48.0154 72.055 47.2013 70.7666 46.0491 70.2249C46.0834 69.8657 46.0269 69.5036 45.8848 69.1719C45.7427 68.8403 45.5195 68.5496 45.2358 68.3267C45.5074 67.7161 45.8464 66.0214 44.5579 65.0054C45.1004 62.9044 42.9306 61.6841 41.7783 61.616C41.2366 61.2089 40.4907 60.9381 39.4731 60.87C40.219 59.7859 40.0155 58.362 39.1341 57.5487C39.2022 56.3965 38.3889 55.3116 37.2359 54.9045C36.8297 53.9558 34.6598 54.0912 34.4563 54.9726C33.1687 55.447 32.4235 56.8027 32.5589 58.0904C31.8129 58.9037 31.8129 60.2595 32.5589 61.2082C31.881 61.1409 30.9315 61.3444 30.3217 61.6152H30.2536C29.7112 61.3444 29.1687 61.2082 28.5589 61.3444C28.4235 61.2082 28.0165 61.0728 27.7456 61.0054C27.539 60.6529 27.2322 60.3698 26.8642 60.1921C26.7288 59.5816 26.2537 59.1072 25.7801 58.9037C25.8474 58.4293 25.6447 57.8869 25.5085 57.6153C25.2369 57.209 25.305 56.5311 25.3731 56.3949C25.712 56.056 25.4404 55.717 25.3057 55.5816C24.6279 54.9038 23.95 55.2427 23.7465 55.5816C23.0694 54.3613 22.3234 54.0905 21.9163 54.2259C21.3058 53.7515 20.4252 54.0905 20.4252 54.6321C20.0189 54.9038 19.7473 55.0392 20.3578 56.1233C20.2224 58.3605 20.4933 59.0383 21.9852 60.2587C21.5101 60.733 21.3073 61.6818 21.7136 62.4277C21.5782 63.5119 22.1887 64.5968 22.9347 65.1392C23.1382 66.6985 24.6286 67.5791 25.6462 67.7827C26.3233 68.7995 27.2728 69.2738 28.2223 69.3419C28.2896 69.8163 28.4258 70.2233 28.6967 70.6296C28.4932 71.511 28.4932 72.3243 28.764 73.0703C28.0861 73.8155 27.8153 74.9693 28.1534 76.1207C27.3401 77.0702 27.0693 78.6279 27.6118 79.9171C27.6118 79.9171 27.4082 80.2561 27.2728 80.5943C26.7304 80.8666 26.1887 81.4756 25.9171 82.2882C25.6462 82.8987 25.7816 83.712 25.9171 84.3907C25.0357 85.1359 24.4932 87.0341 26.0525 88.526C25.7135 89.6094 24.9683 90.5589 24.0862 91.7119C23.4764 92.5252 23.341 92.9315 24.0862 93.881C24.6286 94.6262 25.6454 95.2367 26.5268 95.2367C28.1534 95.3048 29.3057 94.9659 29.4419 93.7448C29.5773 93.0677 29.1029 91.6438 29.1029 91.3057C29.0348 90.9659 29.1703 90.4243 29.5092 89.5436C31.0004 89.2039 31.7463 88.1198 31.8818 87.0349C32.9667 86.4243 33.78 85.1367 33.3729 83.7128C33.5765 83.5101 33.6446 83.3065 33.78 82.9676C33.78 83.5782 34.1862 83.9844 34.3898 84.3915C33.78 85.95 34.5933 87.3738 35.542 87.9844C33.9154 90.3569 35.6774 91.5092 36.1526 91.9835C36.7623 92.526 36.8304 93.5436 37.7799 93.8817C38.5932 94.1526 41.1693 93.8817 41.6437 92.7968C41.7791 92.526 41.9145 92.1878 41.7791 91.9835C41.7791 91.1702 41.3047 90.6278 40.4241 90.0853C39.4073 89.5444 39.4073 89.6791 38.9322 88.1871C40.4914 87.4419 40.7631 85.6799 40.695 85.0012C41.7791 83.6455 41.7118 82.494 41.102 81.7488C41.3055 81.1383 41.2374 80.6639 41.102 80.1888C42.0507 79.3755 42.4577 78.1559 42.1188 76.8667C42.6613 76.0534 42.7967 75.1728 42.5932 74.156C43.0675 74.9019 43.8127 75.172 44.626 75.172C44.626 75.172 44.6941 75.3763 44.7614 75.5109C44.4898 75.9853 44.626 76.5278 45.2358 76.9348C45.3039 77.2072 45.4393 77.3411 45.5748 77.4773C45.5748 77.6815 46.1172 78.5622 46.727 78.0878C46.7943 78.0878 47.473 77.6134 47.473 77.6134C48.0827 78.0886 49.4385 77.6823 49.3031 76.8009Z" fill="#221C35"/>
<path fill-rule="evenodd" clip-rule="evenodd" d="M42.9988 72.3266C44.6935 72.1912 46.3201 70.293 44.7608 68.801C44.5573 69.14 44.0829 69.4789 43.744 69.6143C43.6766 70.3603 43.2015 70.9701 42.9307 71.309C42.9307 71.5814 42.9988 72.2593 42.9988 72.3266Z" fill="white"/>
<path fill-rule="evenodd" clip-rule="evenodd" d="M45.7779 70.9026C45.3709 71.9875 44.286 72.5973 42.9983 72.8008C42.7948 73.6822 43.9478 75.0388 45.7098 74.2247C46.9975 73.6822 47.4726 71.6486 45.7779 70.9026ZM45.3035 75.7159C45.1681 75.8521 45.1681 76.1902 45.3709 76.393C45.3709 76.3264 45.5063 75.9186 45.5744 75.784C45.5063 75.6478 45.3709 75.6478 45.3035 75.7159ZM46.3877 76.5292C46.3196 76.3264 46.3877 76.0548 46.0487 75.9867C45.7098 75.8521 45.7098 76.9362 45.9133 76.8681C46.0487 76.7334 46.1842 76.5972 46.3877 76.5292ZM46.862 76.6653C46.3877 76.8015 46.0487 77.1397 46.2515 77.4105C46.3188 77.5467 46.3869 77.5467 46.6585 77.3425C46.7939 77.2759 47.0648 77.0716 47.1329 77.0035C47.0656 76.8008 46.862 76.6653 46.862 76.6653ZM47.2691 74.5636C47.1337 74.4963 46.8628 74.2928 46.7266 74.0893C46.3877 74.4282 45.6417 74.8345 45.3035 74.9026C45.3709 74.9026 45.439 75.2415 45.5071 75.3769C45.6425 75.3769 45.7787 75.5116 45.9133 75.6478C46.0487 75.5797 46.5231 75.6478 46.6593 76.1221C46.8628 76.2583 47.2691 76.4611 47.4045 76.5965C47.947 77.2751 48.3532 77.207 48.4894 77.0708C48.9638 76.7319 48.2859 76.3922 47.947 75.9178C47.7434 75.7151 47.201 74.9699 47.201 74.7664C47.201 74.6983 47.3364 74.7664 47.4726 74.9026C47.4726 74.9707 48.2178 75.8521 48.6248 76.1902C48.2859 75.0388 47.2691 74.5636 47.2691 74.5636ZM36.5584 73.0043C42.9983 72.9362 43.8116 69.1398 42.9302 67.6494C40.9647 69.683 34.3886 70.8353 31.1354 68.2592C30.5256 68.9371 29.7116 69.1406 29.0337 69.276C29.2372 71.1735 32.6947 73.0724 36.5584 73.0043Z" fill="white"/>
<path fill-rule="evenodd" clip-rule="evenodd" d="M32.2198 64.938C32.3553 66.2256 31.8136 67.3779 31.542 67.7849C32.1525 68.2592 33.3721 69.1406 36.1517 69.2087C40.3551 69.2761 44.8287 67.2424 42.3207 63.7857C41.2365 65.2088 35.8808 66.4291 32.2198 64.938ZM26.6622 64.5309C27.679 63.5814 27.7463 62.3619 27.2719 61.4805C27.1365 61.345 27.0003 61.1415 26.7976 61.0061C26.5941 62.7681 24.0861 64.1247 22.4595 62.9724C23.0693 65.4796 25.5772 65.5477 26.6622 64.5309Z" fill="white"/>
<path fill-rule="evenodd" clip-rule="evenodd" d="M28.6957 66.2255C30.1869 64.5308 28.6957 61.9548 28.0179 61.8193C28.4922 64.3273 25.9842 66.2929 23.7471 65.3441C24.2888 66.9034 26.9329 68.1911 28.6957 66.2255Z" fill="white"/>
<path fill-rule="evenodd" clip-rule="evenodd" d="M26.6621 67.7849C27.9498 69.1407 31.4073 69.0734 31.6108 65.8867C31.7462 63.7177 30.7975 62.4973 29.3055 62.0911C31.0683 65.4124 28.9666 67.7168 26.6621 67.7849ZM29.3736 71.1735C28.7631 74.8346 33.6444 75.986 36.5587 75.9179C41.5073 75.7152 42.5922 73.3426 42.3206 71.9195C39.2021 74.3602 32.5595 74.0894 29.3736 71.1735Z" fill="white"/>
<path fill-rule="evenodd" clip-rule="evenodd" d="M31.881 78.9019C34.5252 79.4443 36.6261 78.2232 36.6261 76.4612C35.3377 76.4612 31.2031 76.3931 29.2376 73.6824C27.8818 75.5798 29.5092 78.2232 31.881 78.9019Z" fill="white"/>
<path fill-rule="evenodd" clip-rule="evenodd" d="M35.4737 78.9698C33.1012 80.1894 29.8472 79.3088 28.6269 76.8008C26.8648 79.5788 29.7791 82.0876 31.9482 81.9514C34.5923 81.8175 35.3383 80.1213 35.4737 78.9698Z" fill="white"/>
<path fill-rule="evenodd" clip-rule="evenodd" d="M28.1538 80.4619C27.3405 81.9523 28.3573 83.5797 29.4422 83.9867C31.7467 84.8681 33.306 83.3762 33.1705 82.2913C31.3396 82.6983 29.4414 82.1558 28.1538 80.4619ZM26.3229 85.002C25.2387 85.8849 25.9839 88.256 27.6113 88.7984C29.9158 89.6117 30.9326 88.0532 31.068 87.2399C30.4582 87.3746 27.8148 87.9178 26.3229 85.002Z" fill="white"/>
<path fill-rule="evenodd" clip-rule="evenodd" d="M29.3052 84.3929C28.0848 83.7823 27.3389 82.8328 27.2715 81.5452C25.5095 83.3072 26.9999 86.0868 28.6273 86.6293C31.8813 87.7807 33.0335 85.0011 32.7627 84.1886C31.4742 85.07 29.9149 84.731 29.3052 84.3929ZM40.9645 92.4593L41.0999 92.5274C40.8283 93.0699 38.8628 93.5442 38.0495 93.2045C37.1 92.7317 37.3035 92.1892 36.6937 91.646C35.338 90.3584 35.5415 89.8159 35.745 89.1372C35.8123 88.7983 35.9485 88.5948 36.2194 88.2559C37.1681 88.5948 37.5751 88.5282 38.3884 88.3239C38.3884 88.392 38.3884 88.5948 38.4565 88.6629C37.846 88.731 37.3035 88.8672 37.3035 88.8672L37.507 89.3415C37.507 89.3415 37.9814 89.2053 38.5912 89.1372C38.5912 89.1372 38.6593 89.477 38.7266 89.6116C38.1841 89.6116 37.7098 89.8159 37.7098 89.8159L37.8452 90.2222C37.8452 90.2222 38.5904 90.0194 39.1329 90.086C39.6753 90.5603 41.8444 91.1028 40.7602 92.2566C40.354 92.6628 39.3364 92.7975 38.5231 92.7975V92.9337C38.66 93.138 40.1512 93.2045 40.9645 92.4593ZM39.9477 85.4762C39.2855 85.9709 38.4678 86.2117 37.6432 86.1549C36.491 86.1549 35.6769 85.6805 34.999 84.9353C34.592 86.9682 35.8804 87.9177 37.3035 87.985C39.8796 88.1212 39.9477 85.7486 39.9477 85.4762Z" fill="white"/>
<path fill-rule="evenodd" clip-rule="evenodd" d="M37.5758 85.6805C40.3554 85.7486 41.1687 83.4434 40.6262 82.4266C39.0669 84.3248 35.474 83.9185 34.728 81.5452C33.7801 83.2399 35.3386 85.6805 37.5758 85.6805Z" fill="white"/>
<path fill-rule="evenodd" clip-rule="evenodd" d="M37.9827 83.1719C39.3384 83.1719 40.8296 82.2239 40.4907 80.5285C38.9314 81.5453 36.9651 81.478 35.6101 80.4619C35.4747 80.6647 35.2712 81.0028 35.1357 81.139C35.3385 82.4267 36.6269 83.1719 37.9827 83.1719Z" fill="white"/>
<path fill-rule="evenodd" clip-rule="evenodd" d="M36.2873 78.4274C36.22 78.4955 36.1519 78.5636 36.0838 78.5636C36.0838 79.038 35.9484 79.647 35.813 80.054C37.7112 81.6822 41.7104 80.6646 41.4395 77.3425C40.0838 78.6983 37.9147 79.038 36.2873 78.4274Z" fill="white"/>
<path fill-rule="evenodd" clip-rule="evenodd" d="M37.1686 76.4612C37.1686 77.0718 36.9651 77.6143 36.6269 78.0894C39.0668 78.8346 42.118 77.5469 41.9818 74.6311C41.1685 75.3779 39.6766 76.3266 37.1686 76.4612ZM24.8995 62.7009C26.7296 61.8876 26.5934 59.9894 25.5092 59.5151C25.2376 59.7859 25.3057 60.3965 25.3057 60.5311C25.3057 60.8027 24.8314 61.0055 24.7633 60.87C24.6279 60.6665 25.0349 60.4638 24.8314 59.9886C24.6959 59.5824 25.1703 59.3789 25.1703 58.7002C25.1703 58.294 24.8314 57.6842 24.8314 57.548C24.6279 57.1409 24.6279 56.3957 24.8995 56.0568C24.6959 55.8533 24.4243 55.6498 24.2216 56.0568C23.8826 56.5312 24.0181 57.1409 24.2216 57.6161C24.2216 57.6842 23.8826 57.6161 23.7472 58.1585L23.6118 58.3621H23.4764C23.4083 57.9558 23.5437 57.7523 23.6799 57.4814C23.6118 57.4133 23.4764 57.0744 23.4764 56.4646C23.2048 55.6513 22.595 54.9053 22.188 54.838C22.5269 55.3805 23.1374 56.5327 23.2048 56.6681C23.3402 57.0071 23.0694 57.0744 23.0694 57.0744C22.595 56.1249 22.1199 55.2443 21.7128 54.8372C21.442 54.6337 21.1711 54.4983 21.0357 54.7018C21.1711 54.7018 21.3066 54.8372 21.442 54.9734C21.849 55.5151 22.7304 57.2779 22.7304 57.2779C22.7304 57.2779 22.6631 57.3452 22.5269 57.3452C22.3915 57.3452 22.2553 57.0744 22.0525 56.6C21.7809 56.1938 21.3747 55.5151 21.1711 55.3116C20.9676 55.0408 20.8322 55.1081 20.6968 55.2443C20.8322 55.4478 20.9684 55.7186 20.9684 55.9222C21.3073 55.7867 21.7136 56.1257 21.7817 56.4646C21.7817 56.7362 21.9171 57.6169 22.1206 57.8885C22.0525 57.8885 21.849 58.0239 21.849 58.0239C21.6455 57.8204 21.5101 56.8716 21.442 56.5327C21.442 56.3973 21.3747 56.2611 21.1711 56.1938C21.0357 56.1938 21.0357 56.2611 21.0357 56.3292C20.9003 58.2266 21.0357 58.701 22.7304 59.9894C22.8658 60.0568 23.002 60.3284 23.1374 60.6C23.2729 60.8035 23.4764 61.1424 23.8826 61.0743L24.0181 61.2098C23.6791 61.5487 23.1367 61.346 23.0013 61.2098C22.9339 61.0743 22.6623 60.6673 22.6623 60.6673C21.442 61.8869 23.0694 63.5816 24.8995 62.7009ZM26.7977 88.9347C26.1198 90.4266 25.4419 91.1037 24.6967 92.1886C24.1543 92.8657 24.3578 93.2039 24.6967 93.679C25.3746 94.4258 26.5268 94.8321 27.4082 94.5604V94.4939C26.3233 94.5604 25.4419 94.1542 24.9683 93.4771L25.0357 93.409C26.256 94.3585 27.8826 94.0861 28.4931 93.7479C28.6967 93.6798 28.764 93.4771 28.764 93.2736C28.6967 92.7326 28.4251 91.8497 28.3577 91.3753C28.2896 91.0364 28.4251 90.292 28.764 89.4787C28.2208 89.5452 27.1366 89.409 26.7977 88.9347ZM42.5924 63.1753C43.4738 63.7851 43.6084 65.0054 43.6084 65.4798C44.4898 63.7851 43.2022 62.7683 42.5243 62.5647C42.6597 62.8364 42.6597 63.108 42.5924 63.1753ZM43.8801 68.7337C45.5747 67.7842 44.4898 65.7514 44.219 65.616C44.1517 65.8195 43.9482 66.3612 43.3376 67.039C43.6765 67.4461 43.8801 68.0559 43.8801 68.7337ZM32.0853 64.3275C33.3056 64.87 34.5933 65.0727 35.8809 65.0727C39.4057 65.0727 41.8464 64.0567 42.0499 63.0391C42.1854 62.1577 40.5588 61.616 38.8641 61.4798C38.5925 61.7514 38.2535 61.8861 38.1181 61.8861C38.0508 61.8861 37.9146 61.8188 38.0508 61.7507C38.3224 61.6152 38.5932 61.3444 38.3224 60.8693C38.5259 60.8693 39.1357 60.5984 39.2038 59.5143C39.2038 58.6329 38.7967 58.0904 38.3905 57.8196C38.3905 57.8196 38.2551 57.6842 38.3905 57.6842C38.5259 56.5993 37.7807 55.7179 36.4923 55.447V55.3116C36.5596 55.3116 36.5596 55.2443 36.5596 55.2443C36.4923 54.9734 35.5428 54.838 35.1365 55.177C35.0692 55.2443 35.34 55.3805 35.4073 55.3805C35.5428 55.3805 35.6109 55.5159 35.4754 55.5159C34.6621 55.4486 33.3064 56.1264 33.3064 57.9566C33.3737 57.9566 33.7808 57.8892 33.9169 57.8892C34.0524 57.9566 33.9843 58.0928 33.9169 58.0928C32.6285 58.1601 32.1542 60.398 33.8488 61.1432C33.8488 61.1432 33.9843 61.2105 33.8488 61.2786C33.6453 61.4141 33.5099 61.6849 33.7815 61.8884C33.9169 61.8884 33.985 62.0238 33.9169 62.0919C33.9169 62.2274 33.7134 62.2274 33.578 62.0919C32.6966 61.6849 31.6798 61.8884 30.8665 62.1593C31.4747 62.6328 31.881 63.4461 32.0853 64.3275Z" fill="white"/>
<path fill-rule="evenodd" clip-rule="evenodd" d="M23.2729 58.6336C23.2048 58.7009 23.0013 58.4982 22.7986 58.362C22.5951 58.2947 22.3242 58.2947 22.3242 58.2266C22.3242 58.2266 22.5277 58.1593 22.7305 58.1593C22.8659 58.1593 23.0021 58.2266 23.1375 58.2266C23.2048 58.362 23.3403 58.5655 23.2729 58.6336ZM27.7465 91.3737C27.3394 91.2391 26.7297 91.171 26.3907 91.171V90.6966C26.797 90.7647 27.4075 90.8328 27.8819 90.9675L27.7465 91.3737ZM28.0181 90.4931C27.4075 90.2904 27.2721 90.2904 26.5942 90.2223V89.816C27.3394 89.816 27.5437 89.816 28.1535 90.0203L28.0181 90.4931ZM37.6438 59.5823C37.5765 59.5823 37.5084 59.5823 37.4403 59.6497C36.2199 59.4461 35.881 59.7178 35.2031 59.7178C35.2031 59.6497 35.2031 59.5142 35.0677 59.5142C35.0677 59.5816 34.9996 59.6497 34.9996 59.6497C34.7961 59.9213 34.728 60.0559 34.7961 60.124C34.8634 60.1921 34.9996 60.0559 35.0677 59.9886C35.135 59.9886 35.4066 59.9886 35.6775 60.124C35.881 60.2594 36.2873 60.8019 36.6943 60.5984C37.0332 60.463 37.3041 59.9205 37.5076 59.9205C37.643 59.9205 37.7792 59.9878 37.7792 59.9205C37.8465 59.9213 37.7111 59.515 37.6438 59.5823ZM36.6943 60.3964C36.2873 60.5318 36.0838 60.0575 35.7456 59.922C36.0845 59.854 36.6943 59.7866 37.2368 59.854C37.1013 59.9213 36.7624 60.3283 36.6943 60.3964ZM37.1687 56.4646C36.7624 56.5327 36.4916 57.0751 36.4916 57.753C36.5589 58.1593 36.6951 58.5663 36.9659 58.7698C37.1013 58.8379 37.2375 58.9052 37.373 58.9052C37.78 58.8379 38.1182 58.2947 38.0508 57.6168C38.0508 57.2105 37.8473 56.8035 37.6446 56.6681C37.5846 56.6019 37.511 56.5495 37.4288 56.5143C37.3467 56.4792 37.258 56.4622 37.1687 56.4646Z" fill="#221C35"/>
<path fill-rule="evenodd" clip-rule="evenodd" d="M37.7111 58.3619C37.7792 58.2265 37.8465 57.9557 37.8465 57.6167C37.7792 57.2778 37.7111 57.007 37.5076 56.8034C37.4403 56.7353 37.3041 56.7354 37.236 56.7354C36.897 56.7354 36.6935 57.2097 36.7616 57.7522V57.8876C36.8297 57.5486 36.9651 57.277 37.236 57.2097C37.5076 57.2097 37.7103 57.5486 37.7103 57.9549L37.7111 58.3619Z" fill="white"/>
<path fill-rule="evenodd" clip-rule="evenodd" d="M35.2709 56.5325C34.8638 56.5998 34.5249 57.1422 34.5249 57.8201C34.5249 58.2264 34.6603 58.5661 34.9319 58.8369C35.0674 58.9043 35.2028 58.9724 35.4063 58.9724C35.8133 58.9724 36.1523 58.3618 36.1523 57.6847C36.1523 57.2777 36.0169 56.9387 35.746 56.7352C35.6861 56.6692 35.6126 56.6169 35.5306 56.5819C35.4486 56.5469 35.36 56.53 35.2709 56.5325Z" fill="#221C35"/>
<path fill-rule="evenodd" clip-rule="evenodd" d="M35.8125 58.2945C35.8798 58.091 35.9479 57.8882 35.9479 57.6847C35.8798 57.3458 35.8125 57.0742 35.6089 56.8714C35.5408 56.8041 35.4054 56.736 35.27 56.8041C34.9984 56.8041 34.7275 57.2785 34.7275 57.8202C34.7275 58.0237 34.7956 58.2264 34.9311 58.3626C34.863 58.2953 34.863 58.2272 34.863 58.0918C34.863 57.6855 35.0665 57.3458 35.3373 57.3458C35.6089 57.3458 35.8117 57.6847 35.8117 58.0918L35.8125 58.2945Z" fill="white"/>
</svg>
